<svg width="26" height="29" viewBox="0 0 26 29" fill="none" xmlns="http://www.w3.org/2000/svg">
<g clip-path="url(#clip0_228_1083)">
<path d="M13.2085 7.76681C9.7051 7.76681 6.87925 10.5927 6.87925 14.096C6.87925 17.5994 9.7051 20.4253 13.2085 20.4253C16.7119 20.4253 19.5377 17.5994 19.5377 14.096C19.5377 10.5927 16.7119 7.76681 13.2085 7.76681ZM13.2085 18.2109C10.9445 18.2109 9.09366 16.3655 9.09366 14.096C9.09366 11.8266 10.939 9.98121 13.2085 9.98121C15.478 9.98121 17.3233 11.8266 17.3233 14.096C17.3233 16.3655 15.4725 18.2109 13.2085 18.2109ZM21.2729 7.50791C21.2729 8.32867 20.6119 8.98418 19.7966 8.98418C18.9759 8.98418 18.3204 8.32316 18.3204 7.50791C18.3204 6.69266 18.9814 6.03164 19.7966 6.03164C20.6119 6.03164 21.2729 6.69266 21.2729 7.50791ZM25.4648 9.00621C25.3712 7.02867 24.9195 5.27698 23.4708 3.83376C22.0276 2.39054 20.2759 1.93884 18.2983 1.83969C16.2602 1.72401 10.1513 1.72401 8.11315 1.83969C6.14111 1.93333 4.38942 2.38503 2.94069 3.82825C1.49196 5.27147 1.04577 7.02316 0.946622 9.00071C0.830944 11.0388 0.830944 17.1477 0.946622 19.1859C1.04027 21.1634 1.49196 22.9151 2.94069 24.3583C4.38942 25.8016 6.1356 26.2533 8.11315 26.3524C10.1513 26.4681 16.2602 26.4681 18.2983 26.3524C20.2759 26.2588 22.0276 25.8071 23.4708 24.3583C24.914 22.9151 25.3657 21.1634 25.4648 19.1859C25.5805 17.1477 25.5805 11.0444 25.4648 9.00621ZM22.8318 21.3727C22.4021 22.4524 21.5704 23.2842 20.4852 23.7194C18.8602 24.3638 15.0042 24.2151 13.2085 24.2151C11.4127 24.2151 7.55128 24.3583 5.93179 23.7194C4.85213 23.2897 4.02035 22.4579 3.58518 21.3727C2.94069 19.7477 3.08942 15.8918 3.08942 14.096C3.08942 12.3003 2.9462 8.43884 3.58518 6.81935C4.01484 5.73969 4.84662 4.90791 5.93179 4.47274C7.55679 3.82825 11.4127 3.97698 13.2085 3.97698C15.0042 3.97698 18.8657 3.83376 20.4852 4.47274C21.5648 4.9024 22.3966 5.73418 22.8318 6.81935C23.4763 8.44435 23.3276 12.3003 23.3276 14.096C23.3276 15.8918 23.4763 19.7533 22.8318 21.3727Z" fill="#ABABAB"/>
</g>
<defs>
<clipPath id="clip0_228_1083">
<rect width="24.678" height="28.2034" fill="white" transform="translate(0.864258)"/>
</clipPath>
</defs>
</svg>
