<svg width="40" height="40" viewBox="0 0 40 40" fill="none" xmlns="http://www.w3.org/2000/svg">
<path opacity="0.4" d="M20.0002 36.6663C29.2049 36.6663 36.6668 29.2044 36.6668 19.9997C36.6668 10.7949 29.2049 3.33301 20.0002 3.33301C10.7954 3.33301 3.3335 10.7949 3.3335 19.9997C3.3335 29.2044 10.7954 36.6663 20.0002 36.6663Z" fill="#ABB2C4"/>
<path d="M26.6668 18.7497H21.2502V13.333C21.2502 12.6497 20.6835 12.083 20.0002 12.083C19.3168 12.083 18.7502 12.6497 18.7502 13.333V18.7497H13.3335C12.6502 18.7497 12.0835 19.3163 12.0835 19.9997C12.0835 20.683 12.6502 21.2497 13.3335 21.2497H18.7502V26.6663C18.7502 27.3497 19.3168 27.9163 20.0002 27.9163C20.6835 27.9163 21.2502 27.3497 21.2502 26.6663V21.2497H26.6668C27.3502 21.2497 27.9168 20.683 27.9168 19.9997C27.9168 19.3163 27.3502 18.7497 26.6668 18.7497Z" fill="#555761"/>
</svg>
