<svg width="16" height="16" viewBox="0 0 16 16" fill="none" xmlns="http://www.w3.org/2000/svg">
<path d="M14.6668 6.74967H9.25016V1.33301C9.25016 0.649675 8.6835 0.0830078 8.00016 0.0830078C7.31683 0.0830078 6.75016 0.649675 6.75016 1.33301V6.74967H1.3335C0.650163 6.74967 0.0834961 7.31634 0.0834961 7.99967C0.0834961 8.68301 0.650163 9.24967 1.3335 9.24967H6.75016V14.6663C6.75016 15.3497 7.31683 15.9163 8.00016 15.9163C8.6835 15.9163 9.25016 15.3497 9.25016 14.6663V9.24967H14.6668C15.3502 9.24967 15.9168 8.68301 15.9168 7.99967C15.9168 7.31634 15.3502 6.74967 14.6668 6.74967Z" fill="#555761"/>
</svg>
