<svg width="24" height="26" viewBox="0 0 24 26" fill="none" xmlns="http://www.w3.org/2000/svg">
<path d="M8.47257 25.4407C7.89389 25.3603 7.30642 25.316 6.73772 25.1934C3.51922 24.4993 1.00713 21.8582 0.605193 18.7738C0.0694819 14.6573 3.02043 10.9486 7.3721 10.2673C8.2365 10.1321 9.36966 10.1353 9.9196 10.2782V14.3152C9.70259 14.276 9.4992 14.2294 9.29309 14.2031C6.86181 13.8769 4.77314 15.6401 4.85305 17.9493C4.9163 19.7726 6.47107 21.2771 8.4526 21.43C10.3421 21.5767 12.1505 20.2791 12.4974 18.5142C12.5531 18.2057 12.5792 17.893 12.5752 17.58C12.5828 12.0943 12.5872 6.60849 12.5882 1.1226C12.5882 1.00253 12.6003 0.882758 12.6066 0.762695H16.8418C16.9347 4.17961 19.6278 6.7944 23.2155 6.93733C23.4356 6.94619 23.4595 7.02881 23.4576 7.19861C23.4525 8.3635 23.4549 9.52811 23.4549 10.6927V10.95C20.997 10.9397 18.8242 10.2276 16.8457 8.84175C16.8457 8.97039 16.8457 9.05529 16.8457 9.14019C16.8542 11.9598 16.8617 14.7791 16.8684 17.5983C16.8685 17.9916 16.8438 18.3846 16.7943 18.7752C16.3944 21.9346 13.7528 24.6242 10.4417 25.2437C9.96076 25.3337 9.46924 25.3763 8.98286 25.4407H8.47257Z" fill="#ABABAB"/>
</svg>
